<svg version="1.2" xmlns="http://www.w3.org/2000/svg" viewBox="0 0 500 150" width="500" height="150">
	<title>Proyek Baru</title>
	<style>
		.s0 { fill: #2e69ec } 
	</style>
	<path class="s0" d="m51.7 28.3c-11 4.9-12.5 18.2-2.9 25.9 6.1 5 18.3 2.3 22.1-4.8 3.2-6.4 2.6-12.4-1.9-17.2-4.9-5.2-11.2-6.5-17.3-3.9zm11.7 6.8c6.9 5.6 3.3 15.9-5.7 15.9-5.4 0-9.5-4.1-9.5-9.6 0-3.4 6.1-9.3 9.5-9.3 1 0 3.5 1.3 5.7 3z"/>
	<path class="s0" d="m130.2 53c-8.7 3.8-12.1 13.8-7 21.1 1.3 1.7 6.5 5.2 11.6 7.7 7.3 3.4 9.3 5 9.3 7.5 0 1.8-0.7 3.9-1.7 5-2.4 2.3-10.3 2.1-16.4-0.3l-5.1-2.2v4.9c0 4.8 0.3 5 8 6.7 14.6 3.3 25.4-2.6 25.4-13.9 0-7.2-2.2-9.6-14.4-16-8.6-4.7-10.9-8.9-6.8-12.2 2.3-1.9 12.5-1.6 17.3 0.4 2 1 2.4 0.5 2.4-3.3 0-3.7-0.8-5-3.7-6-5.1-2-13.6-1.7-18.9 0.6z"/>
	<path class="s0" d="m373 53.1c-2.7 3-2.9 4-0.5 6.3 4.6 4.6 12.2 0 8.8-5.4-2-3.2-5.5-3.6-8.3-0.9z"/>
	<path class="s0" d="m319.9 52.7c0 0.3 4.5 11.5 10 25.1l9.9 24.7 4.9 0.5 4.9 0.4 5.7-15c3.1-8.2 6.5-17 7.6-19.3 2.9-6.7 6.4-15.5 6.4-16.1 0-0.3-2.2-0.6-5-0.6-5.5 0-4.8-1.4-14.2 26.2l-4.7 13.6-2.6-5.6c-1.4-3.2-4.6-12.2-7.2-20.1l-4.7-14.1h-5.5c-3.1 0-5.5 0.2-5.5 0.3z"/>
	<path class="s0" d="m299 61.9c-0.8 3.7-1.8 5-4 5-4 0-3.3 7.6 0.9 8.8 2.6 0.5 2.9 2 3.2 12.3 0.3 10 0.7 11.9 3.5 14.1 5.5 4.6 14.4 3 14.4-2.5 0-2.6-0.9-3.5-4-3.9-4-0.4-4-0.6-4-10.6 0-10 0-10.2 4-10.6 3.1-0.4 4-1.3 4-4.1 0-2.9-0.8-3.5-4.4-3.5-4.1 0-4.4-0.4-4.4-5 0-4.7-0.4-5.1-4.2-5.1-3.6 0-4.3 0.7-5 5.1z"/>
	<path class="s0" d="m393.9 61.1c0 3.5-0.8 4.8-3.7 5.8-4.5 1.8-4.5 8 0.1 8 2.5 0 2.8 1.2 3.1 11.8 0 6.5 0.5 12.5 1.1 13.5 1.9 2.9 8.5 4.8 13.4 3.8 3.9-0.7 4.4-1.3 3.9-4.4-0.6-2.4-1.9-3.6-4.6-3.9-3.7-0.4-3.8-0.7-3.8-10.6 0-10 0-10.2 4.1-10.6 3-0.4 3.9-1.3 3.9-4.1 0-2.9-0.7-3.5-4.4-3.5-4 0-4.3-0.4-4.3-5 0-4.7-0.3-5.1-4.4-5.1-3.9 0-4.4 0.4-4.4 4.3z"/>
	<path class="s0" d="m41 64.3c-1.6 1.8-2.9 4.1-2.9 5.1 0 2.3-2.8 2.5-8.2 0.5-6.8-2.7-11.6 0.4-15.1 9.5-4.2 11.2-3.7 15.6 1.6 20.1 2.5 2 5 3.8 5.6 3.8 0.5 0 8.8 4.2 18.4 9.4 9.4 5.2 18.4 9.4 19.9 9.4 1.3 0 3.6-1.3 4.9-2.9 1.5-1.6 4.1-2.9 5.8-2.9 1.9 0 4.1-1.3 5.1-3 1-1.6 6.6-5.4 12.1-8.2 5.7-2.7 11.3-6.1 12.8-7.4 3.2-2.9 3.2-8.5-0.5-18.3-3.6-9.5-8.7-12.6-16.1-9.5-4.2 1.7-4.6 1.5-8.7-3.5l-4.4-5.3h-13.6c-12.2 0-14 0.3-16.7 3.2zm31.1 6.3c2.3 3.6 2.3 3.6-6.1 7.8l-8.6 4.4-6.4-3.1c-9.9-4.8-10.3-5.2-7.5-9.3 2-3.2 3.1-3.5 14.2-3.5 11.2 0 12.2 0.3 14.4 3.7zm-29.8 10.9c8.4 4.5 8.6 4.6 5.8 7.4-7.8 7.8 2.9 18.4 13.2 12.9 2.1-1.2 3.6-0.6 7.1 2.8 5.7 5.2 5.7 6.5 0.2 5.3-3.8-0.7-4.7-0.3-5.8 2.8-0.8 2-1.8 3.6-2.2 3.6-0.6 0-10.3-4.9-21.9-11-22.7-11.9-22.6-11.6-19.5-22.7 2.8-9.4 7-9.7 23.1-1.1zm53.4 1.4c2.9 9.6 1.8 11.8-8.1 16.3-4.8 2.3-9.4 4.1-10.6 4.1-3.3-0.2-7-3.8-7-7.2 0-3.9-4-4-10.7 0-5.4 3.2-8.2 2.8-8.2-1.3 0-3.7 31.1-19.1 37.8-18.7 4.5 0.3 5.1 0.9 6.8 6.8z"/>
	<path class="s0" d="m203.2 66.9c-2.3 0.8-5.1 2.1-6.1 3-1.6 1.3-2.7 1.1-5.3-0.6-4.3-2.9-14.7-3.1-17.2-0.2-2.3 2.8-4.3 2.8-4.3-0.1 0-1.6-1.2-2.1-4-1.8l-4 0.5-0.5 17.7-0.4 17.9h5.2 5.1v-12.2c0-13.4 1.6-16.9 7.9-16.9 5.5 0 6.6 2.8 6.6 16.3v12.8h4.8 4.7l0.4-12.8c0.3-13.5 1.8-16.3 8.3-16.3 5.4 0 6.5 2.8 6.5 16.3v12.8h4.4 4.3v-15.3c0-13.4-0.4-15.7-2.9-18.1-1.6-1.6-3.4-3-4.2-3-0.7 0-2.2-0.2-3.3-0.5-1-0.3-3.8 0-6 0.5z"/>
	<path class="s0" d="m237.8 67.1c-7.1 1.7-8.6 3-7.4 6.8 1 2.8 1.3 2.9 5.9 0.9 6.7-2.8 8.9-2.6 12.4 0.9 4.4 4.3 3.6 5.8-2.9 5.8-15.8 0-24.1 10.9-15.1 19.9 3 3 4.6 3.6 9.6 2.9 3.2-0.5 6.9-1.9 8.5-3.4 2.5-2.3 2.8-2.3 2.8-0.1 0 1.6 1.2 2.5 3.6 2.5h3.7v-14.6c0-13.6-0.3-14.9-3.7-18.1-1.9-2.1-4.5-3.7-5.6-3.7-1.2 0-2.9-0.2-4.1-0.5-1-0.3-4.5 0-7.7 0.7zm13.8 22.4c0 3.7-5.7 8.1-9.7 7.7-5-0.6-7.4-4.5-5-7.6 2.6-3.2 14.7-3.2 14.7-0.1z"/>
	<path class="s0" d="m426.1 67.2c-7.7 1.3-9.1 2.5-8 6.6 0.8 2.9 1.1 2.9 5.8 1 6.5-2.8 9.8-2.6 12.6 0.6 4.1 4.3 2.9 6.1-3.6 6.1-8.3 0-16 4-17.9 9.1-3.2 9.6 8.1 17.2 18.3 12.1 3.1-1.5 5.1-1.9 5.4-0.9 0.3 0.7 2.3 1.5 4.6 1.5 4 0 4.2-0.3 4.2-7 0-25.4-4.9-32.1-21.4-29.1zm12.9 22.3c0 5.8-10.2 10.3-14.3 6.2-2.3-2.3-2.1-3.3 0.6-6.1 3.1-3 13.7-3.2 13.7-0.1z"/>
	<path class="s0" d="m267.6 85.1v18.2h5.1 5v-11.1c0-13.6 1.5-16.5 8-16.5 4.7 0 5.1-0.3 5.1-4.4 0-3.8-0.6-4.4-3.9-4.4-2.2 0-5.4 1.5-7.3 3.2l-3.3 3.1v-3.1c0-2.6-0.9-3.2-4.4-3.2h-4.3z"/>
	<path class="s0" d="m372.2 85.1v18.2h4.3 4.4v-18.2-18.2h-4.4-4.3z"/>
	<path class="s0" d="m458.4 72.2c-4.8 4.9-5.8 8.3-5.2 17.1 0.9 11.9 15.6 18.8 28.5 13.4 4.1-1.8 4.8-2.6 4.2-5.7-0.7-3.5-0.9-3.5-5.1-1.4-7.4 3.7-18.6 0.4-18.6-5.6 0-2.4 1.3-2.7 13.1-2.7 13.1 0 13.1 0 13.1-3.7 0-4.9-3.5-11.6-7.6-14.3-1.9-1.3-6.2-2.4-10.4-2.4-6.3 0-7.7 0.6-12 5.3zm18.3 3.5c4.7 4.6 3.5 5.8-5.8 5.8-9.4 0-10.4-1.2-5.5-5.8 4.1-3.7 7.6-3.8 11.3 0z"/>
</svg>